Patient4_TMGait_0pt6_01_right_24_EMG.mot
version=1
nRows=13
nColumns=33
inDegrees=no
endheader
time	1LAddLong	2LGlutMax	3LGlutMed	4LIliopsoas	5LSemiMemb	6LBicFemLong	7LRecFem	8LVastMed	9LVastLat	10LGasMed	11LTibAnt	12lTibPost	13LPeroneusLong	14LSol	15LExtDigLong	16LFlexDigLong	17RAddLong	18RGlutMax	19RGlutMed	20RIliopsoas	21RSemiMemb	22RBicFemLong	23RRecFem	24RVastMed	25RVastLat	26RGasMed	27RTibAnt	28RTibPost	29RPeroneusLong	30RSol	31RExtDigLong	32RFlexDigLong
29.888	0.005341	0.071716	-0.03479	0.01709	0.046082	0.020142	0.2327	0.00061	-0.09201	0.044708	-0.028534	0.007629	-0.046844	-0.19653	-0.3215	0.001984	0.003052	-0.083618	-0.17883	0.31937	-0.098267	-0.019226	0.030975	-0.02243	0.00946	-0.011292	-0.030518	-0.004578	0.014496	-0.10986	-0.000305	0.003967
29.889	0.011902	0.0737	0.083008	0.050964	0.054474	0.025635	0.19089	-0.002441	0.092316	0.028229	-0.038757	0.007172	-0.2269	-0.033722	0.003204	0.000763	-0.003815	-0.039368	-0.32806	0.27039	-0.11658	-0.055542	0.13657	-0.066071	0.000153	-0.020447	-0.20432	-0.007782	-0.26352	-0.048676	-0.001373	0.002136
29.89	0.016632	0.023499	0.081635	0.02121	0.036774	0	0.092316	0.007935	0.048981	0.027161	-0.032043	0.009766	-0.39047	0.013885	0.005035	-0.004272	-0.012512	-0.10452	-0.28488	0.097198	0.057983	-0.11002	0.16495	-0.033569	0.000763	-0.029755	-0.30838	-0.014801	-0.026093	0.022125	-0.003052	-0.002441
29.891	0.024261	0.019989	0.1683	-0.003967	0.058289	-0.003357	0.15778	0.011292	0.011292	0.019531	-0.010834	0.005646	-0.026855	0.076904	0.016022	0.000305	-0.030975	-0.10941	-0.19394	0.004272	0.037384	-0.14954	0.064392	0.006714	0.017548	-0.039215	-0.20844	-0.012054	0.070496	0.11215	-0.002136	-0.005798
29.892	0.023193	-0.014191	0.069427	-0.000458	0.027161	0.022736	0.20187	0.013275	-0.033417	0.001221	-0.026398	0.013733	0.3569	0.015411	0.019226	-0.003815	-0.032501	-0.071259	-0.10834	-0.039215	0.073547	-0.099182	0.083618	0.012665	0.010681	-0.039063	-0.018768	-0.01236	-0.1384	0.11536	-0.000305	-0.0177
29.893	0.017242	0.01358	0.002136	-0.00946	-0.002441	0.028381	0.20096	0.001221	-0.061646	0.026245	0.019226	0.006561	0.47012	-0.072937	0.077362	-0.005035	-0.025024	-0.045471	-0.1004	-0.049286	0.090332	-0.094757	0.058746	-0.011749	0.015869	-0.036621	0.073242	-0.010834	-0.23636	0.069885	0.000305	-0.012817
29.894	0.013885	0.033569	0.011749	-0.014648	-0.002747	0.025177	0.15167	-0.003967	-0.065155	0.058441	0.051117	0.014648	0.059357	-0.042725	0.17288	-0.011444	-0.022278	-0.087433	-0.13382	0.095367	-0.024872	-0.10712	0.036163	-0.052338	0.003357	-0.031738	0.17441	-0.009613	-0.36682	0.041199	-0.003052	-0.011444
29.895	0.007477	0.032959	0.066376	-0.013428	0.006256	0.019379	0.13611	-0.010681	-0.058441	0.049744	0.058746	0.006866	0.6807	0.037537	0.20218	-0.004578	-0.013123	-0.096283	-0.000763	0.08667	-0.06012	0.029907	0.024414	-0.035858	0.003967	-0.023346	0.23178	-0.009155	-0.080719	0.12512	0.000153	-0.00946
29.896	0.002136	0.039215	0.14313	-0.007629	0.007629	0.016785	0.12222	-0.006256	-0.049438	0.006561	-0.006866	0.011902	0.80231	0.062561	0.16403	0.000305	0.002441	-0.11398	0.040436	0.04303	-0.056763	0.21469	-0.023804	-0.05661	0.004578	-0.017548	0.15106	-0.009918	0.27542	0.058899	-0.003052	-0.003052
29.897	0.000763	0.029449	-0.031738	0.016479	0.016479	0.058136	0.14816	-0.009003	-0.1062	0.027771	0.011139	0.008545	-0.56488	0.22873	0.19058	0.005188	0.027618	-0.13611	0.079651	0.025787	-0.054016	0.12268	-0.066833	-0.028534	0.011749	-0.023956	0.11871	-0.013428	0.25986	-0.043182	-0.005341	-0.014343
29.898	0.010376	-0.005493	-0.066986	0.026245	0.020905	0.064545	0.14862	-0.005646	-0.1329	0.024261	0.021057	0.005798	-0.42648	0.15991	0.060883	-0.000153	0.010986	-0.076141	-0.026093	0.029755	0.034027	0.052643	-0.04837	-0.005341	0.009766	-0.031281	0.028687	-0.006866	0.43488	-0.023193	-0.000763	-0.006561
29.899	0.011749	0.003204	0.026855	0.00885	0.018158	0.031891	0.15366	0.002747	-0.039063	0.011292	0.000916	0.001221	-0.34592	-0.007324	-0.039215	-0.002594	0.001068	-0.059357	-0.059204	-0.020752	0.013885	0.004578	-0.028992	-0.02594	0.020142	-0.025024	-0.10651	-0.012817	0.62775	-0.012817	0.001984	-0.003052
29.9	-0.002289	-0.029755	-0.001831	0.001526	0.016785	-0.024261	0.19486	0	0.033875	0.025482	-0.004883	0.005798	-0.23499	-0.037079	-0.021973	0.003357	0.024109	-0.069275	0.22614	-0.087738	-0.016937	-0.021057	0.007629	-0.03479	0.00946	-0.030975	0.13519	-0.008698	0.028381	-0.040741	-0.003357	-0.001984
